<svg xmlns="http://www.w3.org/2000/svg" width="30" height="30" viewBox="0 0 30 30">
    <defs>
        <clipPath id="clip-path">
            <path id="Rectangle_44" fill="#fff" stroke="#707070" d="M0 0H30V30H0z" transform="translate(167 2608)"/>
        </clipPath>
        <style>
            .cls-3{fill:none;stroke:#344154;stroke-linecap:round;stroke-linejoin:round;stroke-width:.7px}.cls-4{fill:#35b4cf}
        </style>
    </defs>
    <g id="Mask_Group_19" clip-path="url(#clip-path)" transform="translate(-167 -2608)">
        <g id="Group_44" transform="translate(441.055 908.175)">
            <path id="Path_118" d="M-232.617 1702.455v-.089a1.482 1.482 0 0 0-1.482-1.482 1.482 1.482 0 0 0-1.482 1.482v.089" class="cls-3" transform="translate(-24.957)"/>
            <path id="Path_119" d="M-242.421 1708.217v3.123a.534.534 0 0 0 .534.534h.214a.534.534 0 0 0 .53-.465l.009-.066a1.87 1.87 0 0 1 1.855-1.629 1.87 1.87 0 0 1 1.855 1.629l.009.066a.534.534 0 0 0 .53.465.534.534 0 0 0 .534-.534v-3.123a.413.413 0 0 0-.413-.413h-5.244a.413.413 0 0 0-.413.413z" class="cls-3" transform="translate(-19.669 -5.349)"/>
            <path id="Path_120" d="M-262.622 1713.309h-5.209a1.553 1.553 0 0 0-1.642 1.446v22.171a1.553 1.553 0 0 0 1.642 1.446h17.552a1.553 1.553 0 0 0 1.642-1.446v-22.171a1.553 1.553 0 0 0-1.642-1.446h-5.33" class="cls-3" transform="translate(0 -9.605)"/>
            <path id="Path_121" d="M-257.381 1722.746h-2.655v20.779h12.815l3.736-3.175v-17.6h-2.655" class="cls-3" transform="translate(-7.294 -16.899)"/>
            <path id="Path_122" d="M-244.872 1761.716l-1.7 1.8-.822-.822" class="cls-3" transform="translate(-16.281 -47.023)"/>
            <path id="Line_49" d="M0 2.026L2.026 0" class="cls-3" transform="translate(-263.601 1709.461)"/>
            <path id="Line_50" d="M2.026 2.026L0 0" class="cls-3" transform="translate(-263.601 1709.461)"/>
            <path id="Line_51" d="M0 2.026L2.026 0" class="cls-3" transform="translate(-263.601 1719.901)"/>
            <path id="Line_52" d="M2.026 2.026L0 0" class="cls-3" transform="translate(-263.601 1719.901)"/>
            <g id="Group_42" transform="translate(-259.618 1711.033)">
                <path id="Path_123" d="M-227.409 1746.5h-5.864a.454.454 0 0 1-.454-.454.454.454 0 0 1 .454-.454h5.864a.454.454 0 0 1 .454.454.454.454 0 0 1-.454.454z" class="cls-4" transform="translate(233.727 -1745.595)"/>
            </g>
            <g id="Group_43" transform="translate(-259.618 1716.158)">
                <path id="Path_124" d="M-227.409 1769.077h-5.864a.454.454 0 0 1-.454-.454.454.454 0 0 1 .454-.454h5.864a.454.454 0 0 1 .454.454.454.454 0 0 1-.454.454z" class="cls-4" transform="translate(233.727 -1768.169)"/>
            </g>
            <path id="Path_125" d="M-215.039 1799.873v-2.562h2.562" class="cls-3" transform="translate(-40.133 -74.538)"/>
        </g>
    </g>
</svg>
