<svg xmlns="http://www.w3.org/2000/svg" xmlns:xlink="http://www.w3.org/1999/xlink" width="90" height="90" viewBox="0 0 90 90">
    <defs>
        <linearGradient id="linear-gradient" x1=".561" x2=".471" y1="-.065" y2=".62" gradientUnits="objectBoundingBox">
            <stop offset="0" stop-color="#fff"/>
            <stop offset="1" stop-color="#cad7ee"/>
        </linearGradient>
        <linearGradient id="linear-gradient-2" x1="409.771" x2="409.681" y1="-.065" y2=".62" xlink:href="#linear-gradient"/>
        <linearGradient id="linear-gradient-4" x1="473.376" x2="473.286" y1="-.065" y2=".62" xlink:href="#linear-gradient"/>
        <clipPath id="clip-path">
            <path id="Rectangle_32" fill="#fff" stroke="#707070" d="M0 0H90V90H0z" transform="translate(560 820)"/>
        </clipPath>
        <clipPath id="clip-path-2">
            <rect id="Rectangle_12" width="58.822" height="58.822" class="cls-2" rx="8.253"/>
        </clipPath>
        <clipPath id="clip-path-3">
            <path id="Path_32" d="M376.423 714.129a19.77 19.77 0 0 1-19.77 19.77c-26.225-1.04-26.218-38.5 0-39.541a19.771 19.771 0 0 1 19.77 19.771z" class="cls-2" transform="translate(-336.986 -694.359)"/>
        </clipPath>
        <style>
            .cls-19{fill:#fff}.cls-16,.cls-2{fill:none}.cls-7{fill:#76408b}.cls-8{fill:#e66914}.cls-9{fill:#fa5}.cls-10{fill:url(#linear-gradient)}.cls-16{stroke:#263243;stroke-linecap:round;stroke-linejoin:round;stroke-width:.269px}
        </style>
    </defs>
    <g id="Mask_Group_9" clip-path="url(#clip-path)" transform="translate(-560 -820)">
        <g id="Group_18" transform="translate(225.014 154.836)">
            <g id="Group_13" transform="translate(346.472 669.163)">
                <rect id="Rectangle_10" width="77.018" height="77.018" fill="none" stroke="#1a1818" stroke-miterlimit="10" stroke-width="0.345px" rx="11.097"/>
                <rect id="Rectangle_11" width="58.822" height="58.822" fill="#58b99d" rx="8.253" transform="translate(9.098 9.098)"/>
                <g id="Group_12" transform="translate(9.098 9.098)">
                    <g id="Group_11" clip-path="url(#clip-path-2)">
                        <g id="Group_10" transform="translate(3.251 20.569)">
                            <path id="Path_18" d="M376 726.6c9.745 0 20.409.046 26.13-6.953-.877-1.4-3.748-7.26-4.669-8.466a4.374 4.374 0 0 0-.264-.483c-3.21-4.519-9.12-6.659-14.484-7.644a29.168 29.168 0 0 0-6.063-.543c-.948-.019-.342-.019-1.29 0-7.016.01-16.643 2.3-20.262 7.827-1.132 1.385-4.214 7.527-5.289 9.236 5.724 7.039 16.415 7.026 26.191 7.026z" class="cls-7" transform="translate(-349.814 -675.427)"/>
                            <path id="Path_19" d="M372.027 702.122a17.128 17.128 0 0 1-.31-5.654h-7.4c.463 3.806-.388 8-3.2 10.873 3.43 2.575 10.427 2.545 13.808 0a12.318 12.318 0 0 1-2.898-5.219z" class="cls-8" transform="translate(-341.882 -679.657)"/>
                            <path id="Path_20" d="M368.352 687.555c-12.541-.519-7.777 22.7 0 22.235 7.782.564 12.514-22.817 0-22.235z" class="cls-9" transform="translate(-342.219 -685.922)"/>
                            <path id="Path_21" d="M377.176 692.138c-1-3.46-3.576-5.518-8.378-5.546-6.618-.054-9.072 4.255-8.78 9.644a17.218 17.218 0 0 0 .249 2.313 17.679 17.679 0 0 0 1.765 5.008 31.3 31.3 0 0 0-.01-4.191c-.012-2.911.936-5.651 3.678-6.771a3.6 3.6 0 0 1 1.146-.444c4.579-.979 6.856 0 6.856 0s1.527 1.1 1.786 4.849a1.8 1.8 0 0 1-.031.463v.022c.313 1.927-.15 4.684.106 6.072a26.576 26.576 0 0 0 1.539-3.8 23.613 23.613 0 0 0 .385-2.383 10.846 10.846 0 0 0-.311-5.236z" class="cls-7" transform="translate(-342.665 -686.592)"/>
                            <path id="Path_22" d="M373.644 689.972a9.114 9.114 0 0 1-2.722 4.009c-1.857 1.351-10.085.657-10.085.657.402-7.638 8.535-7.578 12.807-4.666z" class="cls-7" transform="translate(-342.074 -685.495)"/>
                            <path id="Path_23" d="M361.822 702.035l-1.093 1.5 6.217 4.54 1.41-2.693z" class="cls-10" transform="translate(-342.15 -675.748)"/>
                            <path id="Path_24" fill="url(#linear-gradient-2)" d="M371.745 702.035l1.093 1.5-6.217 4.54-1.41-2.693z" transform="translate(-339.004 -675.748)"/>
                        </g>
                    </g>
                </g>
            </g>
            <g id="Group_17" transform="translate(336.986 712.05)">
                <g id="Group_16" clip-path="url(#clip-path-3)">
                    <g id="Group_15" transform="translate(-14.962 -8.66)">
                        <path id="Rectangle_13" fill="#f2b700" d="M0 0H69.291V69.291H0z"/>
                        <path id="Path_25" fill="#e61c46" d="M358.077 732.49c8.591 0 17.99.041 23.033-6.129-.773-1.232-3.3-6.4-4.116-7.462a3.772 3.772 0 0 0-.233-.426c-2.829-3.985-8.039-5.871-12.766-6.739a25.725 25.725 0 0 0-5.343-.478c-.836-.017-.3-.017-1.137 0-6.186.008-14.671 2.024-17.86 6.9-1 1.222-3.716 6.635-4.662 8.141 5.042 6.203 14.465 6.193 23.084 6.193z" transform="translate(-323.424 -673.844)"/>
                        <path id="Path_26" d="M354.571 710.917a15.07 15.07 0 0 1-.272-4.984h-6.528a15.07 15.07 0 0 1-.272 4.984 10.845 10.845 0 0 1-2.548 4.6c3 2.267 9.21 2.242 12.17 0a10.859 10.859 0 0 1-2.55-4.6z" class="cls-8" transform="translate(-316.432 -677.572)"/>
                        <path id="Path_27" d="M351.334 698.077c-11.055-.456-6.856 20.012 0 19.6 6.866.483 11.033-20.101 0-19.6z" class="cls-9" transform="translate(-316.729 -683.095)"/>
                        <path id="Path_28" d="M345.577 710.84l-.963 1.319 5.48 4 1.243-2.374z" class="cls-10" transform="translate(-316.668 -674.127)"/>
                        <path id="Path_29" fill="url(#linear-gradient-4)" d="M354.324 710.84l.963 1.319-5.48 4-1.243-2.374z" transform="translate(-313.895 -674.127)"/>
                        <g id="Group_14" transform="translate(28.556 23.687)">
                            <rect id="Rectangle_14" width="3.416" height="2.188" class="cls-16" rx=".204" transform="translate(1.574)"/>
                            <rect id="Rectangle_15" width="3.416" height="2.188" class="cls-16" rx=".204" transform="translate(7.292)"/>
                            <path id="Line_4" d="M0 0L2.303 0" class="cls-16" transform="translate(4.99 0.805)"/>
                            <path id="Line_5" d="M0 0L1.574 0.455" class="cls-16" transform="translate(0 0.577)"/>
                            <path id="Line_6" d="M0 0.466L1.539 0" class="cls-16" transform="translate(10.862 0.572)"/>
                        </g>
                        <path id="Path_30" fill="#291b2f" d="M359.134 702.115c-.882-3.049-3.152-4.863-7.384-4.887-5.833-.048-8 3.751-7.74 8.5a14.8 14.8 0 0 0 .22 2.041 15.562 15.562 0 0 0 1.556 4.412 27.869 27.869 0 0 0-.009-3.694c-.012-2.565.826-4.98 3.241-5.968a3.223 3.223 0 0 1 1.011-.391c4.036-.863 6.043 0 6.043 0s1.346.972 1.573 4.274a1.449 1.449 0 0 1-.027.407v.02c.276 1.7-.133 4.129.092 5.352a14.853 14.853 0 0 0 1.7-5.448 9.573 9.573 0 0 0-.276-4.618z" transform="translate(-317.107 -683.685)"/>
                    </g>
                    <path id="Path_31" fill="#585858" d="M367 733.9h-20.6a9.429 9.429 0 0 1-9.418-9.442V703.8a9.431 9.431 0 0 1 9.418-9.443H367a9.431 9.431 0 0 1 9.418 9.443v20.655A9.429 9.429 0 0 1 367 733.9z" opacity="0.7" transform="translate(-336.986 -694.359)"/>
                </g>
            </g>
            <path id="Path_33" d="M368.326 675.711l2.355 4.772 5.266.765-3.811 3.714.9 5.245-4.71-2.476-4.71 2.476.9-5.245-3.811-3.714 5.266-.765z" class="cls-19" transform="translate(16.653 4.598)"/>
            <path id="Path_34" d="M378.521 678.071l.321 4.431 3.832 2.247-4.115 1.675-.953 4.339-2.865-3.4-4.422.434 2.345-3.774-1.78-4.071 4.314 1.064z" class="cls-19" transform="translate(23.405 6.255)"/>
            <path id="Path_35" d="M356.941 678.071l-.321 4.431-3.833 2.247 4.115 1.675.953 4.339 2.865-3.4 4.422.434-2.345-3.774 1.78-4.071-4.314 1.064z" class="cls-19" transform="translate(11.094 6.255)"/>
        </g>
    </g>
</svg>
