<svg xmlns="http://www.w3.org/2000/svg" width="90" height="90" viewBox="0 0 90 90">
    <defs>
        <clipPath id="clip-path">
            <path id="Rectangle_29" fill="#fff" stroke="#707070" d="M0 0H90V90H0z" transform="translate(1504 821)"/>
        </clipPath>
        <clipPath id="clip-path-2">
            <rect id="Rectangle_27" width="60.101" height="60.101" fill="none" rx="8.253"/>
        </clipPath>
        <style>
            .cls-8{fill:none;stroke-miterlimit:10}.cls-7{fill:#273243}.cls-8{stroke:#f2b700;stroke-linecap:round;stroke-width:.7px}
        </style>
    </defs>
    <g id="Mask_Group_12" clip-path="url(#clip-path)" transform="translate(-1504 -821)">
        <g id="Group_30" transform="translate(221.384 156.248)">
            <rect id="Rectangle_25" width="78.692" height="78.692" fill="none" stroke="#1a1818" stroke-miterlimit="10" stroke-width="0.345px" rx="11.097" transform="translate(1288.616 670.752)"/>
            <rect id="Rectangle_26" width="60.101" height="60.101" fill="#429ad5" rx="8.253" transform="translate(1297.911 680.048)"/>
            <g id="Group_32" transform="translate(1297.911 680.048)">
                <g id="Group_31" clip-path="url(#clip-path-2)">
                    <g id="Group_30-2" transform="translate(10.504 19.784)">
                        <path id="Path_60" d="M1310.158 696.959a4.646 4.646 0 0 1 4.355-.471 3.2 3.2 0 0 1 2.264 3.01 8.924 8.924 0 0 1-.136 2.663 3.9 3.9 0 0 1-3.885 3.1 10.02 10.02 0 0 1-2.659-.2 3.816 3.816 0 0 1-3.047-3.753c-.056-2.247-.061-4.5 0-6.744a4.046 4.046 0 0 1 3.616-3.91 7.156 7.156 0 0 1 3.537.209 3.678 3.678 0 0 1 2.631 3.6c-.026.63-.264.979-.884 1.052a3.694 3.694 0 0 1-1.5-.1 1.221 1.221 0 0 1-.656-.776c-.21-.875-.391-1.122-1.264-1.3a1.765 1.765 0 0 0-2.376 1.812c-.015.569.004 1.149.004 1.808zm3.539 3.753c.057-1.93-1.047-2.263-2.381-2.03-.748.13-1.106.682-1.157 1.6-.073 1.376.231 2.083 1.018 2.369 1.461.532 2.523-.284 2.523-1.939z" class="cls-7" transform="translate(-1294.822 -685.216)"/>
                        <path id="Path_61" d="M1323.878 697.922c0 1.071.043 2.144-.009 3.212a4.076 4.076 0 0 1-4.077 4.122 9.527 9.527 0 0 1-2.407-.13 3.972 3.972 0 0 1-3.3-4.056c-.045-2.106-.054-4.217 0-6.323a4.138 4.138 0 0 1 4.3-4.195 8.938 8.938 0 0 1 2.346.2 3.864 3.864 0 0 1 3.125 3.748c.056 1.139.01 2.282.01 3.423zm-6.662-.043c0 .965-.012 1.93 0 2.9a1.585 1.585 0 0 0 1.593 1.774c1.212.042 1.876-.461 1.913-1.649.063-1.981.063-3.967.005-5.948a1.588 1.588 0 0 0-1.844-1.689 1.627 1.627 0 0 0-1.668 1.823c-.01.926.001 1.856.001 2.789z" class="cls-7" transform="translate(-1289.62 -685.206)"/>
                        <path id="Path_62" d="M1307.915 697.443c1.976.955 2.188 2.4 1.842 4.506a3.924 3.924 0 0 1-3.393 3.223 7.042 7.042 0 0 1-3.739-.2 3.7 3.7 0 0 1-2.6-3.148c-.122-.913.188-1.327 1.087-1.431a3.719 3.719 0 0 1 .788-.007c.97.09 1.113.233 1.233 1.2a.9.9 0 0 0 .755.84 6.931 6.931 0 0 0 1.717.077 1.117 1.117 0 0 0 1.054-1.071 6.58 6.58 0 0 0 .045-1.36 1.265 1.265 0 0 0-1.24-1.209c-.1-.014-.208-.016-.314-.023a1.244 1.244 0 0 1-1.079-1.953 1.291 1.291 0 0 1 .845-.489 1.664 1.664 0 0 0 1.25-2.56 1.376 1.376 0 0 0-.79-.53 3.007 3.007 0 0 0-1.15 0 .866.866 0 0 0-.8.889c-.059.87-.4 1.164-1.275 1.191-.158.005-.317.005-.475 0-1.169-.024-1.5-.412-1.356-1.576a3.549 3.549 0 0 1 2.8-3.054 7.226 7.226 0 0 1 3.748.026 3.9 3.9 0 0 1 1.04 6.661z" class="cls-7" transform="translate(-1300 -685.22)"/>
                        <path id="Path_63" d="M1323.6 690.1a2.627 2.627 0 1 1-2.6-2.624 2.616 2.616 0 0 1 2.6 2.624zm-1.3-.021a1.326 1.326 0 1 0-1.318 1.36 1.343 1.343 0 0 0 1.318-1.363z" class="cls-7" transform="translate(-1286.44 -687.473)"/>
                        <path id="Path_64" d="M1318.324 695.2a.948.948 0 0 1-.988 1.038.966.966 0 0 1-1.035-1 .928.928 0 0 1 1-1.021.912.912 0 0 1 1.023.983z" class="cls-7" transform="translate(-1287.951 -682.49)"/>
                    </g>
                </g>
            </g>
            <g id="Group_33" transform="translate(1301.176 684.035)">
                <path id="Path_65" d="M1299.053 681.291l4.324.364-.364 4.324" class="cls-8" transform="translate(-1293.461 -676.246)"/>
                <path id="Path_66" d="M1303.878 710.552l-.909-4.243 4.243-.909" class="cls-8" transform="translate(-1290.567 -658.426)"/>
                <path id="Path_67" d="M1329.2 688.651l-2.445 3.585-3.585-2.445" class="cls-8" transform="translate(-1275.633 -670.806)"/>
                <path id="Path_68" d="M1340.455 693.205a25.78 25.78 0 0 1-35.266 23.955" class="cls-8" transform="translate(-1288.926 -667.44)"/>
                <path id="Path_69" d="M1303.256 681.827a25.78 25.78 0 0 1 37.141 13.682" class="cls-8" transform="translate(-1290.355 -678.39)"/>
                <path id="Path_70" d="M1305.148 720.572A25.767 25.767 0 0 1 1302.92 683" class="cls-8" transform="translate(-1295.838 -674.98)"/>
            </g>
        </g>
    </g>
</svg>
