<svg xmlns="http://www.w3.org/2000/svg" xmlns:xlink="http://www.w3.org/1999/xlink" width="30" height="32" viewBox="0 0 30 32">
    <defs>
        <path id="prefix__a" d="M0 30.295L30 30.295 30 0 0 0z"/>
    </defs>
    <g fill="none" fill-rule="evenodd" transform="translate(0 1)">
        <path stroke="#282D33" stroke-width=".923" d="M4.622 25.479H2.454c-1.101 0-1.992.902-1.992 2.015s.89 2.015 1.992 2.015h2.168v-4.03zM23.372 6.717L24.928 6.724 21.466 6.724"/>
        <path stroke="#282D33" stroke-width=".923" d="M2.952 6.724h-.498c-1.023 0-1.864.777-1.978 1.78 0 .548.004 17.86 0 18.756.114-1.002.955-1.781 1.978-1.781h24.773v-.007l.333.007c1.022 0 1.864-.785 1.978-1.787 0-.549-.003-17.86 0-18.757"/>
        <path stroke="#282D33" stroke-width=".923" d="M26.559 21.759h1.001c1.023 0 1.864.778 1.978 1.78-.003-.895 0-18.207 0-18.755-.114-1.003-.955-1.78-1.978-1.78H26.56v18.755zM7.407 4.483h8.003l-8.003 8.09v-8.09zM3.43.46v21.82L25.01.46H3.43zM11.911 29.834L11.449 29.834 8.705 28.802 11.449 27.769 11.911 27.769M27.828 29.834h1.068c.131 0 .237-.101.237-.227v-1.614c0-.126-.106-.227-.237-.227h-1.068"/>
        <mask id="prefix__b" fill="#fff">
            <use xlink:href="#prefix__a"/>
        </mask>
        <path stroke="#282D33" stroke-width=".923" d="M12.114 29.834L26.601 29.834 26.601 27.766 12.114 27.766zM20.658 17.97c0 .987-.79 1.786-1.766 1.786-.975 0-1.766-.8-1.766-1.786s.79-1.786 1.766-1.786 1.766.8 1.766 1.786zM18.892 15.8L18.892 14.111M18.892 21.829L18.892 20.141M17.033 16.885L15.587 16.041M22.198 19.9L20.751 19.056M17.033 19.056L15.587 19.9M22.198 16.041L20.751 16.885" mask="url(#prefix__b)"/>
    </g>
</svg>
