<svg xmlns="http://www.w3.org/2000/svg" width="32" height="31" viewBox="0 0 32 31">
    <g fill="none" fill-rule="evenodd" stroke="#282D33" stroke-width=".952">
        <path d="M2.304 23.502C-1.346 17.7-.66 9.93 4.364 4.87c5.817-5.859 15.248-5.86 21.067 0" transform="translate(1)"/>
        <path d="M25.486.206L25.486 5.358 20.373 5.356M27.696 7.464c3.65 5.801 2.963 13.572-2.06 18.632-5.817 5.859-15.248 5.86-21.067 0" transform="translate(1)"/>
        <path d="M4.514 30.76L4.514 25.609 9.628 25.611M18.003 20.342c.04-.544.162-1.253.502-1.708 2.109-2.735 2.243-5.34 2.243-5.525 0-3.115-2.505-5.638-5.597-5.638-3.093 0-5.598 2.523-5.598 5.638 0 .185.132 2.789 2.243 5.525.339.455.456 1.164.493 1.708" transform="translate(1)"/>
        <path stroke-linejoin="bevel" d="M14.279 20.326L13.63 14.13M16.023 20.327L16.672 14.13M11.511 20.409L18.791 20.409M11.778 22.785L18.523 22.785M13.101 25.117L17.2 25.117" transform="translate(1)"/>
    </g>
</svg>
