<svg xmlns="http://www.w3.org/2000/svg" xmlns:xlink="http://www.w3.org/1999/xlink" width="31" height="26" viewBox="0 0 31 26">
    <defs>
        <path id="prefix__a" d="M0.083 0.196L1.801 0.196 1.801 0.428 0.083 0.428z"/>
    </defs>
    <g fill="none" fill-rule="evenodd">
        <path stroke="#282D33" stroke-width=".93" d="M0.31 19.937L29.412 19.937 29.412 0 0.31 0z" transform="translate(1 1)"/>
        <path stroke="#282D33" stroke-width=".93" d="M17.527 9.987L15.39 11.235 13.252 12.484 13.252 9.987 13.252 7.49 15.39 8.739z" transform="translate(1 1)"/>
        <g>
            <path stroke="#282D33" stroke-width=".93" d="M4.325 19.614L6.988 19.614M9.941 19.614L26.693 19.614" transform="translate(1 1) translate(0 3.33)"/>
            <g transform="translate(1 1) translate(0 3.33) translate(28.14 19.302)">
                <mask id="prefix__b" fill="#fff">
                    <use xlink:href="#prefix__a"/>
                </mask>
                <path stroke="#282D33" stroke-width=".93" d="M0.083 0.312L1.801 0.312" mask="url(#prefix__b)"/>
            </g>
            <path stroke="#282D33" stroke-width=".93" d="M.233 18.502L.233 20.726M2.051 18.502L2.051 20.726M9.794 19.614c0 .727-.583 1.316-1.3 1.316-.72 0-1.302-.59-1.302-1.316 0-.727.582-1.317 1.301-1.317.718 0 1.301.59 1.301 1.317zM21.227 6.638c0 3.557-2.85 6.441-6.366 6.441-3.516 0-6.366-2.884-6.366-6.441S11.345.197 14.86.197c3.515 0 6.366 2.884 6.366 6.44z" transform="translate(1 1) translate(0 3.33)"/>
        </g>
    </g>
</svg>
