<svg xmlns="http://www.w3.org/2000/svg" width="32" height="31" viewBox="0 0 32 31">
    <g fill="none" fill-rule="evenodd" stroke="#282D33" stroke-width=".945">
        <path d="M24.048 28.69c0 .217-.174.392-.388.392H.388c-.214 0-.388-.175-.388-.392v-9.679c0-.216.174-.39.388-.39H23.66c.214 0 .388.174.388.39v9.68zM1.958 21.288L3.782 21.288M5.01 21.288L6.834 21.288M8.061 21.288L9.884 21.288M11.112 21.288L12.936 21.288M14.164 21.288L15.987 21.288M17.216 21.288L19.038 21.288M20.266 21.288L22.09 21.288M1.958 23.851L3.782 23.851M5.01 23.851L6.834 23.851M8.061 23.851L9.884 23.851M11.112 23.851L12.936 23.851M14.164 23.851L15.987 23.851M17.216 23.851L19.038 23.851M20.266 23.851L22.09 23.851M1.958 26.414L3.782 26.414M5.01 26.414L6.834 26.414M8.061 26.414L19.067 26.414M20.266 26.414L22.09 26.414" transform="translate(1 1)"/>
        <path stroke-dasharray=".945" d="M10.03 5.391H5.164c-2.566 0-4.646 2.102-4.646 4.695 0 2.593 2.08 4.695 4.646 4.695h18.803" transform="translate(1 1)"/>
        <path d="M29.764 17.943c0 .16-.012.317-.035.471" transform="translate(1 1)"/>
        <path stroke-dasharray=".951 .951" d="M29.452 19.32c-.507 1.057-1.577 1.784-2.817 1.784h-1.714" transform="translate(1 1)"/>
        <path d="M24.449 21.104L23.976 21.104M6.45 8.822c0 .635-.51 1.15-1.138 1.15-.629 0-1.139-.515-1.139-1.15 0-.635.51-1.15 1.139-1.15.628 0 1.138.515 1.138 1.15zM6.165 10.41H4.458c-.629 0-1.139.514-1.139 1.15v.094c.52.495 1.22.8 1.993.8.772 0 1.471-.305 1.992-.8v-.094c0-.636-.51-1.15-1.139-1.15zM28.506 13.485c0 .635-.51 1.15-1.14 1.15-.627 0-1.138-.515-1.138-1.15 0-.634.51-1.15 1.139-1.15s1.139.516 1.139 1.15zM28.221 15.073h-1.707c-.63 0-1.14.515-1.14 1.15v.094c.522.496 1.222.801 1.993.801.772 0 1.472-.305 1.992-.8v-.095c0-.635-.509-1.15-1.138-1.15zM17.266 11.741c-3.203 0-5.81-2.633-5.81-5.87S14.064 0 17.267 0c3.203 0 5.809 2.634 5.809 5.87 0 3.238-2.606 5.871-5.81 5.871z" transform="translate(1 1)"/>
        <path d="M18.96 5.3c0 .946-.759 1.712-1.694 1.712-.936 0-1.694-.766-1.694-1.712 0-.945.758-1.712 1.694-1.712.935 0 1.694.767 1.694 1.712zM20.23 10.89V8.915c0-.946-.758-1.713-1.694-1.713h-2.54c-.936 0-1.695.767-1.695 1.713v1.975" transform="translate(1 1)"/>
    </g>
</svg>
