<svg xmlns="http://www.w3.org/2000/svg" width="40" height="40" viewBox="0 0 40 40">
    <defs>
        <clipPath id="clip-path">
            <path id="Rectangle_36" fill="#fff" stroke="#707070" d="M0 0H40V40H0z" transform="translate(1078 1451)"/>
        </clipPath>
        <style>
            .cls-3{fill:none;stroke:#344154;stroke-linecap:round;stroke-linejoin:round;stroke-width:.7px}
        </style>
    </defs>
    <g id="Mask_Group_14" clip-path="url(#clip-path)" transform="translate(-1078 -1451)">
        <g id="Group_35" transform="translate(1082.18 1453.714)">
            <path id="Path_81" d="M887.175 1060.733a20.236 20.236 0 0 1 .334 3.144 3.993 3.993 0 0 1-.907 2.527 2.434 2.434 0 0 0-.51 1.819l.035.3a.8.8 0 0 0 .569.673l3.111.9" class="cls-3" transform="translate(-872.991 -1053.519)"/>
            <path id="Path_82" d="M874.178 1031.834a5.811 5.811 0 0 1 5.268 3.187 9.5 9.5 0 0 1 .665 2.8 10.349 10.349 0 0 0 .873 3.851 2.914 2.914 0 0 0 2.339 1.651 4.314 4.314 0 0 1-4.439 1.875" class="cls-3" transform="translate(-864.065 -1031.834)"/>
            <path id="Path_83" d="M846.69 1031.834a5.811 5.811 0 0 0-5.268 3.187 9.5 9.5 0 0 0-.665 2.8 10.352 10.352 0 0 1-.873 3.851 2.914 2.914 0 0 1-2.339 1.651 4.315 4.315 0 0 0 4.439 1.875" class="cls-3" transform="translate(-836.577 -1031.834)"/>
            <path id="Path_84" d="M860.686 1094.221l3.368 2.515 3.368-2.515" class="cls-3" transform="translate(-853.94 -1078.648)"/>
            <path id="Path_85" d="M847.849 1051.272a3.16 3.16 0 0 1-2.744-.9c-.428-.442-.716-1-1.1-1.479l-.011-.015a1.952 1.952 0 0 0-2.3-.528 3.25 3.25 0 0 0-1.888 2.394 22.952 22.952 0 0 0-.434 3.714 3.994 3.994 0 0 0 .868 2.478 2.541 2.541 0 0 1 .55 1.869l-.035.3a.8.8 0 0 1-.569.673l-3.657 1.062a3.451 3.451 0 0 0-1.418.744 4.222 4.222 0 0 0-1.447 2.419v7.961a4.712 4.712 0 0 0 4.712 4.712h18.614" class="cls-3" transform="translate(-833.664 -1044.099)"/>
            <path id="Line_15" d="M0 2.665L0 0" class="cls-3" transform="translate(23.278 11.452)"/>
            <path id="Line_16" d="M0 2.437L1.271 0" class="cls-3" transform="translate(25.379 11.68)"/>
            <path id="Line_17" d="M0.695 1.333L0 0" class="cls-3" transform="translate(20.481 12.785)"/>
            <path id="Path_86" d="M914.875 1113.773a4.611 4.611 0 0 0-3.667-1.619l-.4 5.663" class="cls-3" transform="translate(-891.549 -1092.104)"/>
            <path id="Path_87" d="M931.176 1117.817l-.4-5.663a4.611 4.611 0 0 0-3.667 1.619v4.816" class="cls-3" transform="translate(-903.781 -1092.104)"/>
            <path id="Path_88" d="M905.8 1116.335h-1.654l-.446 5.342a.408.408 0 0 0 .458.439 8.009 8.009 0 0 1 4.057.667 1.131 1.131 0 0 0 .061.146 1.414 1.414 0 0 0 2.534 0 1.2 1.2 0 0 0 .061-.146 8.008 8.008 0 0 1 4.056-.667.408.408 0 0 0 .458-.439l-.446-5.342h-1.655" class="cls-3" transform="translate(-886.215 -1095.241)"/>
            <path id="Path_89" d="M893.8 1104.034a8.315 8.315 0 1 1 8.315 8.315" class="cls-3" transform="translate(-878.787 -1079.772)"/>
            <path id="Line_18" d="M0 0L0 9.787" class="cls-3" transform="translate(10.114 18.088)"/>
            <path id="Path_90" fill="#ffc524" d="M841.449 1101.861l-.048.014-.048.011a2.05 2.05 0 0 0-.789.438 2.718 2.718 0 0 0-.9 1.427v7.8a3.218 3.218 0 0 0 3.214 3.214h1.114a6.143 6.143 0 0 1-.595-.677 7.238 7.238 0 0 1-1.265-3.249 21.612 21.612 0 0 1-.16-3.515 6.241 6.241 0 0 1 .428-2.707 4.194 4.194 0 0 1 2.529-2.008 8.135 8.135 0 0 1 1.531-.324l-1.81-1.351z" transform="translate(-838.166 -1083.683)"/>
        </g>
    </g>
</svg>
