<svg xmlns="http://www.w3.org/2000/svg" width="40" height="40" viewBox="0 0 40 40">
    <defs>
        <clipPath id="clip-path">
            <path id="Rectangle_37" fill="#fff" stroke="#707070" d="M0 0H40V40H0z" transform="translate(1063 1753)"/>
        </clipPath>
        <style>
            .cls-3{fill:none;stroke:#344154;stroke-linecap:round;stroke-linejoin:round;stroke-width:.7px}.cls-5{fill:#ffc524}
        </style>
    </defs>
    <g id="Mask_Group_15" clip-path="url(#clip-path)" transform="translate(-1063 -1753)">
        <g id="Group_36" transform="translate(1065.951 1756.072)">
            <path id="Path_91" d="M177.731 911.632a6.048 6.048 0 1 0-10.359 4.241 3.612 3.612 0 0 1 1.069 2.527v.021h6.483v-.021a3.478 3.478 0 0 1 1.016-2.473 6.026 6.026 0 0 0 1.791-4.295z" class="cls-3" transform="translate(-145.297 -891.781)"/>
            <path id="Path_92" d="M182.237 958.035v.2a2.937 2.937 0 0 1-2.937 2.937h-.687a2.937 2.937 0 0 1-2.937-2.937v-.2" class="cls-3" transform="translate(-152.571 -929.774)"/>
            <path id="Path_93" d="M181.792 969.617v.561a1.6 1.6 0 0 0 1.595 1.595 1.6 1.6 0 0 0 1.595-1.595v-.566" class="cls-3" transform="translate(-157 -938.16)"/>
            <path id="Line_19" d="M0 1.563L0 0" class="cls-3" transform="translate(26.386 10.671)"/>
            <path id="Line_20" d="M0.534 1.468L0 0" class="cls-3" transform="translate(23.25 11.224)"/>
            <path id="Line_21" d="M1.004 1.197L0 0" class="cls-3" transform="translate(20.492 12.817)"/>
            <path id="Line_22" d="M1.353 0.781L0 0" class="cls-3" transform="translate(18.444 15.257)"/>
            <path id="Line_23" d="M1.539 0.271L0 0" class="cls-3" transform="translate(17.355 18.249)"/>
            <path id="Line_24" d="M1.539 0L0 0.271" class="cls-3" transform="translate(17.355 21.163)"/>
            <path id="Line_25" d="M0 0L1.539 0.271" class="cls-3" transform="translate(33.879 21.163)"/>
            <path id="Line_26" d="M0 0.271L1.539 0" class="cls-3" transform="translate(33.879 18.249)"/>
            <path id="Line_27" d="M0 0.781L1.353 0" class="cls-3" transform="translate(32.975 15.257)"/>
            <path id="Line_28" d="M0 1.197L1.004 0" class="cls-3" transform="translate(31.277 12.817)"/>
            <path id="Line_29" d="M0 1.468L0.534 0" class="cls-3" transform="translate(28.988 11.224)"/>
            <path id="Path_94" d="M112.187 883.033a14.4 14.4 0 1 1 7.637-17.953" class="cls-3" transform="translate(-91.849 -855.505)"/>
            <path id="Path_95" fill="#35b4cf" d="M114.248 864.528c.282.5.548 1 .815 1.5.985 1.825 2.289 3.737 4.3 4.227a6.093 6.093 0 0 0 4.748-1.222c1.387-.955 2.556-2.2 3.928-3.175a12.449 12.449 0 0 1 2.579-1.4 12.723 12.723 0 0 0-16.373.076z" transform="translate(-108.074 -859.852)"/>
            <path id="Path_96" d="M107.723 914.481c-.067-.267-.128-.534-.179-.8-.384-2.008-.423-4.07-.812-6.077a8.952 8.952 0 0 0-2.774-5.331c-1.589-1.3-3.71-1.684-5.673-2.293-.083-.026-.165-.054-.248-.081a12.729 12.729 0 0 0 9.686 14.584z" class="cls-5" transform="translate(-96.195 -887.66)"/>
            <path id="Line_30" d="M0 1.563L0 0" class="cls-3" transform="translate(26.386 10.671)"/>
            <path id="Line_31" d="M0.534 1.468L0 0" class="cls-3" transform="translate(23.25 11.224)"/>
            <path id="Line_32" d="M1.004 1.197L0 0" class="cls-3" transform="translate(20.492 12.817)"/>
            <path id="Line_33" d="M1.353 0.781L0 0" class="cls-3" transform="translate(18.444 15.257)"/>
            <path id="Line_34" d="M1.539 0.271L0 0" class="cls-3" transform="translate(17.355 18.249)"/>
            <path id="Line_35" d="M1.539 0L0 0.271" class="cls-3" transform="translate(17.355 21.163)"/>
            <path id="Line_36" d="M0 0L1.539 0.271" class="cls-3" transform="translate(33.879 21.163)"/>
            <path id="Line_37" d="M0 0.271L1.539 0" class="cls-3" transform="translate(33.879 18.249)"/>
            <path id="Line_38" d="M0 0.781L1.353 0" class="cls-3" transform="translate(32.975 15.257)"/>
            <path id="Line_39" d="M0 1.197L1.004 0" class="cls-3" transform="translate(31.277 12.817)"/>
            <path id="Line_40" d="M0 1.468L0.534 0" class="cls-3" transform="translate(28.988 11.224)"/>
            <path id="Path_97" d="M176.5 914.153a6.631 6.631 0 0 1 3.737 2.612c.056.074.107.151.161.227a4.382 4.382 0 0 0-4.273-5.407c-.1 0-.209 0-.315.011a4.406 4.406 0 0 0-4.042 3.843 5.657 5.657 0 0 1 4.732-1.286z" class="cls-5" transform="translate(-149.74 -896.127)"/>
        </g>
    </g>
</svg>
